<?xml version="1.0" encoding="UTF-8"?>
<svg version="1.1" xmlns="http://www.w3.org/2000/svg" width="360" height="360">
<path d="M0 0 C10.74055249 0 18.88214834 8.39376117 26.53125 15.03515625 C30.7662537 18.6956534 35.17667194 22.12416591 39.59472656 25.55932617 C44.96461647 29.73462353 44.96461647 29.73462353 45.375 32.8125 C45 36 45 36 43.02734375 37.953125 C39.25369403 40.50459913 35.3921381 42.21607567 31.1875 43.9375 C29.93912354 44.45473633 29.93912354 44.45473633 28.66552734 44.98242188 C6.99179989 53.80192687 6.99179989 53.80192687 0 53 C-2 51 -2 51 -2.125 48.625 C-0.36181764 44.51090783 3.07929995 43.64186179 7 42 C9.01492766 41.12869419 11.02715559 40.25137531 13.03881836 39.37255859 C14.4485988 38.75905342 15.8608142 38.15110727 17.27563477 37.54931641 C21.0343712 35.93628489 24.54126836 34.20955866 28 32 C20.81231569 25.71973098 13.54606426 19.7559103 5.67138672 14.35009766 C2.47670463 12.14054342 -0.482127 9.97566809 -3 7 C-2.83849795 3.60845705 -2.41703243 2.41703243 0 0 Z " fill="#000000" transform="translate(315,195)"/>
<path d="M0 0 C6.48314445 1.92093169 10.64293853 4.88348867 15.703125 9.35546875 C18.07123425 11.3881023 18.07123425 11.3881023 22 11 C24.49233824 9.35677758 24.49233824 9.35677758 26.9375 7.1875 C30.15545447 4.45696367 33.23784409 1.9433653 37 0 C39.8125 0.3125 39.8125 0.3125 42 1 C41.42266727 6.19599461 37.35039128 8.82729178 33.625 12.0625 C25.58064516 18 25.58064516 18 22 18 C22 18.66 22 19.32 22 20 C19.69 20.33 17.38 20.66 15 21 C14.46890625 20.12085938 13.9378125 19.24171875 13.390625 18.3359375 C11.00824906 14.76237359 8.09500269 12.27379399 4.75 9.625 C4.19570312 9.17511719 3.64140625 8.72523438 3.0703125 8.26171875 C1.71949529 7.16709101 0.36057754 6.08247207 -1 5 C-0.67 3.35 -0.34 1.7 0 0 Z " fill="#000000" transform="translate(148,203)"/>
<path d="M0 0 C0 2.3125 0 2.3125 -1 5 C-6.72903739 7.68289738 -11.53486051 8.49067633 -17.8125 8.375 C-18.59496094 8.36702393 -19.37742188 8.35904785 -20.18359375 8.35083008 C-26.28420162 8.2017125 -32.42868923 7.68616769 -38 5 C-38.66 4.01 -39.32 3.02 -40 2 C-39 1 -39 1 -35.52734375 0.97265625 C-33.99736444 1.00095468 -32.46741732 1.03102795 -30.9375 1.0625 C-23.24966118 1.16196156 -15.94551458 0.52361237 -8.35546875 -0.66015625 C-5.2305143 -0.97665338 -3.00666237 -0.81895756 0 0 Z " fill="#000000" transform="translate(228,235)"/>
<path d="M0 0 C2.45039078 2.38232437 4.75340905 4.65653403 6.75 7.4375 C9.96402252 11.09791454 13.88588062 13.44186167 18 16 C17.3125 19.375 17.3125 19.375 16 23 C9.80285296 26.46905514 1.03147034 26.01225598 -5.69140625 24.32421875 C-7.875 23.5 -7.875 23.5 -11 22 C-11 21.34 -11 20.68 -11 20 C-10.14277344 20.09539062 -9.28554688 20.19078125 -8.40234375 20.2890625 C-2.06898209 20.90312011 3.03648966 21.35766688 9 19 C8.278125 18.34 7.55625 17.68 6.8125 17 C2.44027116 12.61531467 -1.40913866 7.30252094 -2 1 C-1.34 0.67 -0.68 0.34 0 0 Z " fill="#000000" transform="translate(48,210)"/>
<path d="M0 0 C0.495 1.485 0.495 1.485 1 3 C-5.19390179 8.60400638 -10.34690822 10.37900745 -18.8125 10.3125 C-19.86546265 10.30839111 -19.86546265 10.30839111 -20.93969727 10.30419922 C-26.55746982 10.19136389 -30.9078278 9.32274521 -36 7 C-36.33 6.34 -36.66 5.68 -37 5 C-36.67 4.34 -36.34 3.68 -36 3 C-34.27716797 3.06960937 -34.27716797 3.06960937 -32.51953125 3.140625 C-23.51618613 3.38853052 -16.17748528 3.06890605 -7.69921875 -0.22265625 C-4.69416005 -1.08807836 -2.97097344 -0.86044586 0 0 Z " fill="#000000" transform="translate(130,232)"/>
<path d="M0 0 C-0.2578125 1.91796875 -0.2578125 1.91796875 -1 4 C-2.6796875 4.80078125 -2.6796875 4.80078125 -4.875 5.3125 C-10.96604271 7.08055386 -15.79383801 10.46495173 -21 14 C-22.22887177 14.81294594 -23.4579717 15.62554735 -24.6875 16.4375 C-25.450625 16.953125 -26.21375 17.46875 -27 18 C-28.32 17.34 -29.64 16.68 -31 16 C-29.63128119 10.35403491 -25.55734526 7.22144003 -21 4 C-14.09582489 0.09714399 -7.82704784 -0.53569149 0 0 Z " fill="#000000" transform="translate(167,112)"/>
<path d="M0 0 C2.125 0.9375 2.125 0.9375 4 2 C3.81265834 11.55442484 -1.33572308 19.96792284 -7.1875 27.3125 C-10 30 -10 30 -14 30 C-13.52301282 26.0648558 -12.07300161 23.39690473 -10.09179688 20.01293945 C-7.80391842 15.79479146 -6.20174101 11.25599623 -4.46875 6.7890625 C-2.2064217 1.10321085 -2.2064217 1.10321085 0 0 Z " fill="#000000" transform="translate(205,158)"/>
<path d="M0 0 C0.99 0.33 1.98 0.66 3 1 C2.98839844 2.19496094 2.97679687 3.38992187 2.96484375 4.62109375 C2.81094049 14.5847354 2.81094049 14.5847354 3.625 24.5 C3.74875 25.655 3.8725 26.81 4 28 C3.34 28.66 2.68 29.32 2 30 C0.0625 30 0.0625 30 -2 29 C-5.84243515 23.78526658 -5.62007221 18.19256322 -5 12 C-4.26597172 8.2404577 -3.43164782 4.55941797 -2 1 C-1.34 0.67 -0.68 0.34 0 0 Z " fill="#000000" transform="translate(139,153)"/>
<path d="M0 0 C0.66 0 1.32 0 2 0 C2.29390625 1.01707031 2.29390625 1.01707031 2.59375 2.0546875 C5.06110286 9.73325977 8.77771543 14.9412456 14 21 C16 24 16 24 15.625 26.6875 C15.315625 27.8321875 15.315625 27.8321875 15 29 C11.64553862 28.71247474 10.09146782 28.07362044 7.4375 25.9375 C1.86575017 19.22282713 -0.64554763 11.67123785 -1.1875 3 C-1 1 -1 1 0 0 Z " fill="#000000" transform="translate(3,192)"/>
<path d="M0 0 C5.24814739 0.65601842 7.03034099 2.64554735 10.28125 6.609375 C17.34374399 16.43266209 17.34374399 16.43266209 16.625 21.80078125 C16.315625 22.88939453 16.315625 22.88939453 16 24 C14.68 24 13.36 24 12 24 C10.56787109 22.51879883 10.56787109 22.51879883 9.2734375 20.45703125 C8.7990625 19.71259766 8.3246875 18.96816406 7.8359375 18.20117188 C7.35382813 17.41291016 6.87171875 16.62464844 6.375 15.8125 C5.88515625 15.04357422 5.3953125 14.27464844 4.890625 13.48242188 C0.13508769 5.91384132 0.13508769 5.91384132 -1 2 C-0.67 1.34 -0.34 0.68 0 0 Z " fill="#000000" transform="translate(182,118)"/>
<path d="M0 0 C1 1 1 1 1.375 3.375 C1 6 1 6 -1.1875 7.75 C-8.78536629 11.12682946 -16.97372493 10.36617448 -25 9 C-25 5 -25 5 -24 4 C-21.37711147 3.46016612 -18.76150025 2.963107 -16.125 2.5 C-1.57410571 -0.08284767 -1.57410571 -0.08284767 0 0 Z " fill="#000000" transform="translate(315,228)"/>
<path d="M0 0 C0.99 0.33 1.98 0.66 3 1 C2.27791592 12.07195597 -4.05619541 20.61041433 -12 28 C-14.27734375 29.28125 -14.27734375 29.28125 -16 30 C-16.33 29.01 -16.66 28.02 -17 27 C-15.72327764 24.74395648 -14.41204591 22.68289529 -12.9375 20.5625 C-9.16341022 14.95618493 -6.03805816 9.36982914 -3.19140625 3.23046875 C-2 1 -2 1 0 0 Z " fill="#000000" transform="translate(98,193)"/>
<path d="M0 0 C6.00414617 1.92585821 9.66529122 6.64808476 12.75 12 C13.265625 13.010625 13.78125 14.02125 14.3125 15.0625 C13.3225 16.5475 13.3225 16.5475 12.3125 18.0625 C7.47727562 17.60368309 5.09328796 15.53792251 1.5625 12.3125 C0.59828125 11.45140625 -0.3659375 10.5903125 -1.359375 9.703125 C-3.75041412 6.99114104 -4.6142599 5.65126473 -4.6875 2.0625 C-2.6875 0.0625 -2.6875 0.0625 0 0 Z " fill="#000000" transform="translate(80.6875,161.9375)"/>
<path d="M0 0 C0.99 0.33 1.98 0.66 3 1 C2.56747177 3.81143352 1.7867585 5.31041484 0.1484375 7.6953125 C-2.07857381 11.12086081 -3.58864739 14.46944646 -5.125 18.25 C-7.78647687 24.78647687 -7.78647687 24.78647687 -10 27 C-11.32 27 -12.64 27 -14 27 C-15.42804 22.71588001 -13.87289858 19.89231644 -12 16 C-8.62372295 10.05409338 -5.15909059 4.53374627 0 0 Z " fill="#000000" transform="translate(56,172)"/>
<path d="M0 0 C1.32 0 2.64 0 4 0 C3.72184036 3.75113028 3.42513366 7.500569 3.125 11.25 C3.04636719 12.31347656 2.96773438 13.37695312 2.88671875 14.47265625 C2.80292969 15.49746094 2.71914062 16.52226562 2.6328125 17.578125 C2.55949707 18.52075195 2.48618164 19.46337891 2.41064453 20.43457031 C2.00053048 22.99668594 1.29117243 24.76686903 0 27 C-3.875 26.125 -3.875 26.125 -5 25 C-5.74287363 16.24383382 -5.22927339 8.79613046 -1 1 C-0.67 0.67 -0.34 0.34 0 0 Z " fill="#000000" transform="translate(5,147)"/>
<path d="M0 0 C-0.875 4.875 -0.875 4.875 -2 6 C-4.37241472 6.12719929 -6.74920621 6.17587674 -9.125 6.1875 C-10.42695313 6.20167969 -11.72890625 6.21585938 -13.0703125 6.23046875 C-17.11341185 5.99334861 -20.18065048 5.25492913 -24 4 C-23.29296875 2.046875 -23.29296875 2.046875 -22 0 C-19.86328125 -0.609375 -19.86328125 -0.609375 -17.3125 -0.75 C-16.41789062 -0.80414063 -15.52328125 -0.85828125 -14.6015625 -0.9140625 C-9.56004191 -1.08059922 -4.92886297 -1.19487587 0 0 Z " fill="#000000" transform="translate(275,232)"/>
</svg>
